:SAMPLES-PER-SECOND 30
:FULLY-SPECIFIED
:DEGREES
34
root  -54.2027 15.8292 -1.42453 -15.9312 81.5751 -22.8782
RightUpLeg  -40.064 -3.52968 -18.4698
RightLeg  143.015 -9.73174 15.5716
RightFoot  -24.5033 -0.225031 -2.3243
RightToes  3.49245e-010 -3.18055e-015 8.94531e-016
Spine  61.0333 -3.532 12.2304
Spine1  10.4308 9.67589 -19.7863
HEad  -64.143 -14.1765 9.265
LeftShoulder1  0 0 -2.47967e-037
LeftArm  5.15472 -20.4281 -81.5097
LeftForeArm  -32.4604 -54.3047 34.3763
LeftHand  0.454771 5.19495 12.4525
RightShoulder  -2.48481e-017 0 -8.08114e-019
RightArm  -1.12042 52.8123 66.6986
RightForeArm  9.15753 5.09014 -3.43789
RightHand  2.99165 -15.6646 -17.0812
LeftUpLeg  -99.8137 0.330728 -7.50731
LeftLeg  134.23 -22.9304 7.39998
LeftFoot  -29.5526 -0.804788 -5.05377
LeftToes  -9.64061e-011 -5.23042e-011 -2.66379e-011
35
root  -53.0329 15.8757 -1.53681 -14.9684 78.8772 -26.1793
RightUpLeg  -42.5928 -3.48488 -17.7405
RightLeg  141.378 -9.69797 16.4183
RightFoot  -22.497 -0.0891713 -1.14451
RightToes  3.49245e-010 -3.18055e-015 8.94531e-016
Spine  60.3225 -3.4485 11.3671
Spine1  8.63972 9.46312 -22.2427
HEad  -65.0816 -12.1732 8.59454
LeftShoulder1  0 0 -2.47967e-037
LeftArm  0.90923 -20.5 -77.2874
LeftForeArm  -36.652 -58.1862 38.3682
LeftHand  0.5214 5.46294 12.4744
RightShoulder  -2.48481e-017 0 -8.08114e-019
RightArm  0.225378 52.4418 72.803
RightForeArm  9.03264 7.01854 -6.13511
RightHand  3.93293 -17.2538 -22.2719
LeftUpLeg  -101.913 2.49413 -7.27144
LeftLeg  136.721 -23.0644 6.73576
LeftFoot  -29.3169 -1.09005 -7.16826
LeftToes  -9.64061e-011 -5.23042e-011 -2.66379e-011
36
root  -51.7772 16.0624 -1.68667 -15.03 75.6153 -30.2232
RightUpLeg  -44.1368 -2.46108 -16.4497
RightLeg  138.664 -9.74505 18.0001
RightFoot  -21.7417 0.0341082 0.34519
RightToes  3.49245e-010 -3.18055e-015 8.94531e-016
Spine  59.9207 -2.70582 9.45412
Spine1  6.44855 8.70884 -22.796
HEad  -65.5691 -8.74933 8.00458
LeftShoulder1  0 0 -2.47967e-037
LeftArm  -3.92075 -19.4577 -71.5742
LeftForeArm  -42.766 -62.6153 44.4829
LeftHand  0.608751 5.81905 12.6176
RightShoulder  -2.48481e-017 0 -8.08114e-019
RightArm  3.24065 51.0387 80.0486
RightForeArm  9.04566 10.5299 -9.13492
RightHand  4.46832 -17.8088 -25.5544
LeftUpLeg  -102.39 5.43484 -6.66383
LeftLeg  138.81 -22.7547 5.87085
LeftFoot  -29.5814 -1.46674 -9.6649
LeftToes  -9.64061e-011 -5.23042e-011 -2.66379e-011
37
root  -50.3874 16.3427 -1.88222 -15.7487 71.9784 -35.0838
RightUpLeg  -44.9028 -0.673926 -15.0458
RightLeg  135.108 -10.2108 20.5955
RightFoot  -22.1093 0.133228 1.58387
RightToes  3.49245e-010 -3.18055e-015 8.94531e-016
Spine  59.2204 -1.63612 7.72956
Spine1  4.06438 8.06017 -21.9379
HEad  -65.4307 -5.00082 6.91526
LeftShoulder1  0 0 -2.47967e-037
LeftArm  -7.88394 -18.1598 -65.8607
LeftForeArm  -49.149 -66.0135 51.1818
LeftHand  0.689328 6.14324 12.7408
RightShoulder  -2.48481e-017 0 -8.08114e-019
RightArm  9.91513 48.972 86.8026
RightForeArm  7.47402 14.1321 -11.6622
RightHand  4.63735 -17.784 -27.1243
LeftUpLeg  -101.703 8.913 -5.5599
LeftLeg  140.583 -21.7722 4.65024
LeftFoot  -30.0794 -1.86385 -12.0594
LeftToes  -9.64061e-011 -5.23042e-011 -2.66379e-011
38
root  -49.0149 16.703 -2.06907 -14.0004 69.1711 -36.2009
RightUpLeg  -44.6944 0.963038 -14.8398
RightLeg  131.164 -9.79742 22.9813
RightFoot  -22.2402 0.293117 3.5978
RightToes  3.49245e-010 -3.18055e-015 8.94531e-016
Spine  59.5584 -0.2602 5.45828
Spine1  1.79467 7.50495 -20.7225
HEad  -65.6283 -1.99247 5.19143
LeftShoulder1  0 0 -2.47967e-037
LeftArm  -10.5751 -18.2373 -61.3971
LeftForeArm  -54.0995 -67.9504 56.238
LeftHand  0.794597 6.53914 12.0319
RightShoulder  -2.48481e-017 0 -8.08114e-019
RightArm  18.2477 46.2096 91.8292
RightForeArm  3.95613 16.7947 -14.8929
RightHand  5.0349 -18.1299 -29.4385
LeftUpLeg  -98.8004 12.1966 -5.56427
LeftLeg  141.475 -20.3809 3.40548
LeftFoot  -30.623 -2.17555 -13.6951
LeftToes  -9.64061e-011 -5.23042e-011 -2.66379e-011
39
root  -47.7028 17.0796 -2.21602 -10.4392 67.6234 -34.0197
RightUpLeg  -43.3645 1.70844 -15.4292
RightLeg  127.227 -7.6752 23.8143
RightFoot  -21.5511 0.465468 6.25659
RightToes  3.49245e-010 -3.18055e-015 8.94531e-016
Spine  61.1684 1.60092 2.45535
Spine1  -0.387062 6.99006 -18.7861
HEad  -66.3869 0.0574317 3.15768
LeftShoulder1  0 0 -2.47967e-037
LeftArm  -12.5465 -20.0669 -58.356
LeftForeArm  -57.798 -69.0648 59.696
LeftHand  0.917488 7.01435 10.6091
RightShoulder  -2.48481e-017 0 -8.08114e-019
RightArm  25.6004 42.5854 94.8812
RightForeArm  -0.253212 18.7186 -19.4459
RightHand  5.75993 -18.9006 -32.798
LeftUpLeg  -93.8804 14.7287 -6.54245
LeftLeg  141.564 -18.7715 2.20582
LeftFoot  -31.2634 -2.3854 -14.5064
LeftToes  -9.64061e-011 -5.23042e-011 -2.66379e-011
40
root  -46.2171 17.4392 -2.38977 -9.08556 66.7863 -34.4377
RightUpLeg  -40.8649 1.38358 -15.8783
RightLeg  123.807 -5.82381 24.8716
RightFoot  -21.3756 0.45243 5.13175
RightToes  3.49245e-010 -3.18055e-015 8.94531e-016
Spine  62.526 3.26306 0.521732
Spine1  -2.90502 6.56736 -15.5754
HEad  -66.6105 1.77149 1.41792
LeftShoulder1  0 0 -2.47967e-037
LeftArm  -13.9373 -23.1819 -55.5951
LeftForeArm  -59.5003 -69.5704 61.6008
LeftHand  0.975443 7.24935 9.90638
RightShoulder  -2.48481e-017 0 -8.08114e-019
RightArm  28.9429 38.2496 96.231
RightForeArm  -1.73332 21.1638 -23.2412
RightHand  6.32595 -19.4512 -35.2793
LeftUpLeg  -88.4845 16.2091 -6.68547
LeftLeg  141.136 -17.1249 1.03468
LeftFoot  -32.2862 -2.56066 -14.7263
LeftToes  -9.64061e-011 -5.23042e-011 -2.66379e-011
41
root  -44.0953 17.9744 -2.69407 -13.2731 66.2564 -42.0505
RightUpLeg  -37.5262 -1.4699 -11.2144
RightLeg  119.272 4.43883 12.2228
RightFoot  -20.2896 3.9081 22.3398
RightToes  3.49245e-010 -3.18055e-015 8.94531e-016
Spine  63.3224 2.9266 1.91121
Spine1  -4.28778 6.11965 -9.66215
HEad  -66.5549 3.69472 -0.22039
LeftShoulder1  0 0 -2.47967e-037
LeftArm  -15.4678 -28.0645 -51.8526
LeftForeArm  -55.7482 -68.8375 59.3151
LeftHand  0.928372 7.05625 10.5086
RightShoulder  -2.48481e-017 0 -8.08114e-019
RightArm  29.7561 34.3397 96.5504
RightForeArm  -0.95968 24.2672 -25.42
RightHand  6.51315 -19.5833 -36.1983
LeftUpLeg  -81.8396 16.9053 -4.4571
LeftLeg  139.297 -15.2119 -0.317151
LeftFoot  -34.7462 -2.77232 -14.1125
LeftToes  -9.64061e-011 -5.23042e-011 -2.66379e-011
42
root  -42.7325 18.1186 -2.83415 -12.9782 67.1336 -45.487
RightUpLeg  -35.2581 -2.16217 -6.74638
RightLeg  105.062 24.3219 -32.8356
RightFoot  -20.6072 -15.0321 124.998
RightToes  3.49245e-010 -3.18055e-015 8.94531e-016
Spine  61.9992 3.97966 -0.0971358
Spine1  -5.05174 5.15143 -4.79046
HEad  -67.4909 6.1309 -2.07785
LeftShoulder1  0 0 -2.47967e-037
LeftArm  -18.3471 -34.7346 -45.8579
LeftForeArm  -46.2894 -66.2025 52.1934
LeftHand  0.810969 6.58429 11.6711
RightShoulder  -2.48481e-017 0 -8.08114e-019
RightArm  30.9862 31.3802 97.1357
RightForeArm  -0.19353 27.1211 -27.3853
RightHand  6.66092 -19.6725 -36.9571
LeftUpLeg  -80.579 15.8138 -4.76736
LeftLeg  138.264 -14.4537 -0.850804
LeftFoot  -34.2942 -2.68599 -13.9647
LeftToes  -9.64061e-011 -5.23042e-011 -2.66379e-011
43
root  -42.0188 17.9095 -2.86623 -7.72112 69.4349 -43.6322
RightUpLeg  -35.5964 -1.92216 -5.95367
RightLeg  106.266 17.8531 -23.7465
RightFoot  2.5635 21.3822 -148.467
RightToes  3.49245e-010 -3.18055e-015 8.94531e-016
Spine  60.7571 6.62936 -5.59761
Spine1  -8.38768 3.82817 -0.495434
HEad  -68.3323 8.38809 -4.23688
LeftShoulder1  0 0 -2.47967e-037
LeftArm  -22.1453 -41.4324 -38.7321
LeftForeArm  -34.5813 -61.4289 43.4921
LeftHand  0.580643 5.76076 13.5721
RightShoulder  -2.48481e-017 0 -8.08114e-019
RightArm  31.6899 27.242 98.1419
RightForeArm  1.42139 29.9251 -29.5381
RightHand  7.03304 -19.9651 -38.5765
LeftUpLeg  -82.7217 13.0825 -7.96709
LeftLeg  137.959 -14.8702 -0.488724
LeftFoot  -32.313 -2.47135 -14.1846
LeftToes  -9.64061e-011 -5.23042e-011 -2.66379e-011
44
root  -41.0747 17.6224 -3.02077 -1.49989 72.06 -41.4991
RightUpLeg  -38.7641 -3.54097 -4.32376
RightLeg  105.353 -7.55117 70.0038
RightFoot  -179.315 30.5679 28.2663
RightToes  3.49245e-010 -3.18055e-015 8.94531e-016
Spine  60.2198 7.85035 -10.2879
Spine1  -13.5457 2.9234 5.51876
HEad  -68.2003 10.1623 -6.37252
LeftShoulder1  0 0 -2.47967e-037
LeftArm  -26.0645 -46.7667 -31.5864
LeftForeArm  -22.3459 -54.7202 35.7668
LeftHand  0.10786 4.3871 17.17
RightShoulder  -2.48481e-017 0 -8.08114e-019
RightArm  31.7506 21.4938 98.012
RightForeArm  3.04059 32.648 -31.7949
RightHand  7.47366 -20.3043 -40.4093
LeftUpLeg  -84.0223 9.49414 -11.6361
LeftLeg  137.257 -16.16 0.670251
LeftFoot  -31.6642 -2.2949 -13.6219
LeftToes  -9.64061e-011 -5.23042e-011 -2.66379e-011
45
root  -40.486 17.1342 -3.08945 13.4588 74.8464 -30.5518
RightUpLeg  -42.4525 -4.30981 -6.7038
RightLeg  84.665 -19.413 137.404
RightFoot  -149.179 -75.312 -55.2786
RightToes  3.49245e-010 -3.18055e-015 8.94531e-016
Spine  58.5632 8.7508 -17.0283
Spine1  -18.577 2.31087 11.1763
HEad  -67.6913 11.8862 -7.87523
LeftShoulder1  0 0 -2.47967e-037
LeftArm  -30.984 -51.4415 -23.95
LeftForeArm  -10.119 -46.4812 29.5796
LeftHand  -0.473193 2.94508 21.0012
RightShoulder  -2.48481e-017 0 -8.08114e-019
RightArm  32.4081 15.954 97.7641
RightForeArm  3.64629 34.8348 -33.7054
RightHand  7.80681 -20.5603 -41.718
LeftUpLeg  -86.7949 4.59832 -17.3075
LeftLeg  136.862 -18.5682 2.82451
LeftFoot  -29.4688 -1.9213 -12.9231
LeftToes  -9.64061e-011 -5.23042e-011 -2.66379e-011
46
root  -39.5651 16.9084 -3.09865 33.0728 76.7396 -15.3586
RightUpLeg  -44.9992 -5.75994 -11.281
RightLeg  84.4343 -13.1309 154.469
RightFoot  34.4101 -62.9446 116.951
RightToes  3.49245e-010 -3.18055e-015 8.94531e-016
Spine  56.7837 9.08249 -23.0648
Spine1  -22.7038 2.03216 17.326
HEad  -67.2666 13.3219 -8.65741
LeftShoulder1  0 0 -2.47967e-037
LeftArm  -38.1629 -56.0591 -16.662
LeftForeArm  0.886108 -38.1062 25.1773
LeftHand  -0.713129 2.27442 21.5277
RightShoulder  -2.48481e-017 0 -8.08114e-019
RightArm  33.25 11.0479 96.7013
RightForeArm  3.67007 36.4423 -35.173
RightHand  8.12362 -20.8293 -42.818
LeftUpLeg  -87.9534 -0.461676 -21.2765
LeftLeg  135.35 -19.4658 3.91605
LeftFoot  -27.7893 -1.6006 -11.9641
LeftToes  -9.64061e-011 -5.23042e-011 -2.66379e-011
47
root  -38.2248 16.9334 -3.12617 53.4382 77.2026 0.439407
RightUpLeg  -46.6102 -6.38953 -14.8976
RightLeg  87.1044 -11.0343 163.687
RightFoot  2.97814 -44.4227 140.316
RightToes  3.49245e-010 -3.18055e-015 8.94531e-016
Spine  55.7469 9.24288 -27.5207
Spine1  -26.575 2.45817 22.9619
HEad  -67.201 14.1622 -8.96288
LeftShoulder1  0 0 -2.47967e-037
LeftArm  -47.164 -60.1484 -10.9908
LeftForeArm  8.39902 -32.9192 23.0671
LeftHand  -0.406568 2.77612 18.0829
RightShoulder  -2.48481e-017 0 -8.08114e-019
RightArm  32.9823 6.27932 94.7739
RightForeArm  4.60625 37.804 -36.5366
RightHand  8.5136 -21.1442 -44.1551
LeftUpLeg  -86.7498 -4.82579 -23.1434
LeftLeg  132.756 -18.1321 3.12458
LeftFoot  -28.125 -1.36688 -9.90948
LeftToes  -9.64061e-011 -5.23042e-011 -2.66379e-011
48
root  -36.748 16.972 -3.20014 70.4269 76.5074 13.3898
RightUpLeg  -47.7077 -5.50655 -17.7658
RightLeg  89.6007 -10.1972 174.911
RightFoot  -3.2449 -26.5938 139.56
RightToes  3.49245e-010 -3.18055e-015 8.94531e-016
Spine  55.3287 9.28885 -30.4094
Spine1  -29.8839 3.40102 25.7799
HEad  -67.8537 14.1124 -9.05877
LeftShoulder1  0 0 -2.47967e-037
LeftArm  -54.0132 -62.8172 -7.44007
LeftForeArm  9.43442 -34.0235 23.659
LeftHand  0.108328 4.05109 14.3683
RightShoulder  -2.48481e-017 0 -8.08114e-019
RightArm  30.726 2.08062 92.5128
RightForeArm  6.75255 38.7254 -37.598
RightHand  8.83125 -21.362 -45.3207
LeftUpLeg  -84.0043 -7.98196 -24.3665
LeftLeg  129.665 -16.2882 1.66409
LeftFoot  -29.9344 -0.985045 -6.21711
LeftToes  -9.64061e-011 -5.23042e-011 -2.66379e-011
